<svg id="Flat" height="512" viewBox="0 0 512 512" width="512" xmlns="http://www.w3.org/2000/svg"><rect fill="#e9eef2" height="448" rx="16" transform="matrix(-1 0 0 -1 512 509.927)" width="464" x="24" y="30.964"/><path d="m488 46.964v48h-464v-48a16 16 0 0 1 16-16h432a16 16 0 0 1 16 16z" fill="#c3c6c7"/><circle cx="120" cy="62.964" fill="#e9eef2" r="8"/><circle cx="88" cy="62.964" fill="#e9eef2" r="8"/><circle cx="56" cy="62.964" fill="#e9eef2" r="8"/><path d="m72 144h128v64h-128z" fill="#2d85cc"/><path d="m200 208h-80l40-32z" fill="#75ab7d"/><path d="m152 208h-80l40-32z" fill="#88c791"/><g fill="#c3c6c7"><path d="m264 152h-16a8 8 0 0 1 0-16h16a8 8 0 0 1 0 16z"/><path d="m440 152h-144a8 8 0 0 1 0-16h144a8 8 0 0 1 0 16z"/><path d="m360 184h-112a8 8 0 0 1 0-16h112a8 8 0 0 1 0 16z"/><path d="m440 184h-48a8 8 0 0 1 0-16h48a8 8 0 0 1 0 16z"/><path d="m320 216h-72a8 8 0 0 1 0-16h72a8 8 0 0 1 0 16z"/><path d="m440 216h-88a8 8 0 0 1 0-16h88a8 8 0 0 1 0 16z"/></g><path d="m72 256h128v64h-128z" fill="#2d85cc"/><path d="m200 320h-80l40-32z" fill="#75ab7d"/><path d="m152 320h-80l40-32z" fill="#88c791"/><path d="m264 264h-16a8 8 0 0 1 0-16h16a8 8 0 0 1 0 16z" fill="#c3c6c7"/><path d="m440 264h-144a8 8 0 0 1 0-16h144a8 8 0 0 1 0 16z" fill="#c3c6c7"/><path d="m360 296h-112a8 8 0 0 1 0-16h112a8 8 0 0 1 0 16z" fill="#c3c6c7"/><path d="m440 296h-48a8 8 0 0 1 0-16h48a8 8 0 0 1 0 16z" fill="#c3c6c7"/><path d="m320 328h-72a8 8 0 0 1 0-16h72a8 8 0 0 1 0 16z" fill="#c3c6c7"/><path d="m440 328h-88a8 8 0 0 1 0-16h88a8 8 0 0 1 0 16z" fill="#c3c6c7"/><path d="m72 368h128v64h-128z" fill="#2d85cc"/><path d="m200 432h-80l40-32z" fill="#75ab7d"/><path d="m152 432h-80l40-32z" fill="#88c791"/><path d="m264 376h-16a8 8 0 0 1 0-16h16a8 8 0 0 1 0 16z" fill="#c3c6c7"/><path d="m440 376h-144a8 8 0 0 1 0-16h144a8 8 0 0 1 0 16z" fill="#c3c6c7"/><path d="m360 408h-112a8 8 0 0 1 0-16h112a8 8 0 0 1 0 16z" fill="#c3c6c7"/><path d="m440 408h-48a8 8 0 0 1 0-16h48a8 8 0 0 1 0 16z" fill="#c3c6c7"/><path d="m320 440h-72a8 8 0 0 1 0-16h72a8 8 0 0 1 0 16z" fill="#c3c6c7"/><path d="m440 440h-88a8 8 0 0 1 0-16h88a8 8 0 0 1 0 16z" fill="#c3c6c7"/></svg>