<?xml version="1.0" encoding="iso-8859-1"?>
<!-- Generator: Adobe Illustrator 19.0.0, SVG Export Plug-In . SVG Version: 6.00 Build 0)  -->
<svg version="1.1" id="Capa_1" xmlns="http://www.w3.org/2000/svg" xmlns:xlink="http://www.w3.org/1999/xlink" x="0px" y="0px"
	 viewBox="0 0 397.114 397.114" style="enable-background:new 0 0 397.114 397.114;" xml:space="preserve">
<path style="fill:#ED7D45;" d="M54.714,380.557c-25.6,0-46.4-20.8-46.4-46.4s20.8-46.4,46.4-46.4h176l-12.8,14.4
	c-17.6,17.6-17.6,47.2,0,64.8l12.8,13.6H54.714z"/>
<path style="fill:#DD603E;" d="M204.314,334.957c0-12,4.8-24,13.6-32.8l13.6-13.6h-40.8l-14.4,13.6c-17.6,17.6-17.6,47.2,0,64.8
	l13.6,13.6h40.8l-13.6-13.6C209.114,358.157,204.314,346.957,204.314,334.957z"/>
<path style="fill:#FFFFFF;" d="M249.914,380.557c-25.6,0-46.4-20.8-46.4-46.4s20.8-46.4,46.4-46.4h-192.8v-226.4
	c0-25.6,20.8-45.6,45.6-46.4h220.8l-13.6,13.6c-8.8,8.8-13.6,20-13.6,32.8v272.8C296.314,359.757,275.514,380.557,249.914,380.557z"
	/>
<g>
	<path style="fill:#E5E5E5;" d="M288.314,15.757l-13.6,13.6c-8.8,8.8-13.6,20-13.6,32.8v272.8c0,18.4-11.2,35.2-28.8,42.4
		c23.2,9.6,50.4-0.8,60-24.8c2.4-5.6,4-12,4-18.4v-272.8c0-12,4.8-24,13.6-32.8l13.6-13.6L288.314,15.757z"/>
	<path style="fill:#E5E5E5;" d="M342.714,78.957h-46.4v-16.8c0-25.6,20.8-46.4,46.4-45.6c25.6,0,46.4,20.8,45.6,46.4
		c0,21.6-15.2,40-36,44.8l-9.6,0.8V78.957z"/>
</g>
<rect x="296.314" y="78.957" style="fill:#DD603E;" width="46.4" height="28.8"/>
<g>
	<path style="fill:#281A10;" d="M342.714,7.757h-240c-29.6,0-54.4,24-54.4,54.4v219.2c-29.6,3.2-51.2,29.6-48,60
		c3.2,27.2,26.4,48,53.6,48h195.2c29.6,0,54.4-24,54.4-54.4v-219.2h39.2c29.6,0,54.4-24,54.4-54.4S372.314,7.757,342.714,7.757z
		 M212.314,372.557h-157.6c-20.8,0-38.4-16.8-38.4-38.4s16.8-38.4,38.4-38.4h157.6C190.714,317.357,190.714,351.757,212.314,372.557
		z M288.314,61.357v272.8c0,20.8-16.8,38.4-38.4,38.4s-38.4-16.8-38.4-38.4s16.8-38.4,38.4-38.4l0,0c4.8,0,8-3.2,8-8s-3.2-8-8-8
		h-184.8v-218.4c0-20.8,16.8-37.6,37.6-38.4h201.6C293.914,33.357,288.314,47.757,288.314,61.357L288.314,61.357z M334.714,99.757
		h-30.4v-12.8h30.4V99.757z M350.714,98.957v-20c0-4.8-3.2-8-8-8h-38.4v-8.8c0-20.8,16.8-38.4,38.4-37.6c20.8,0,38.4,16.8,37.6,38.4
		C380.314,79.757,368.314,94.957,350.714,98.957L350.714,98.957z"/>
	<path style="fill:#281A10;" d="M117.114,102.957h116.8c4.8,0,8-3.2,8-8s-3.2-8-8-8h-116.8c-4.8,0-8,3.2-8,8
		S112.314,102.957,117.114,102.957z"/>
	<path style="fill:#281A10;" d="M117.114,159.757h116.8c4.8,0,8-3.2,8-8s-3.2-8-8-8h-116.8c-4.8,0-8,3.2-8,8
		S112.314,159.757,117.114,159.757z"/>
	<path style="fill:#281A10;" d="M117.114,217.357h116.8c4.8,0,8-3.2,8-8s-3.2-8-8-8h-116.8c-4.8,0-8,3.2-8,8
		S112.314,217.357,117.114,217.357z"/>
</g>
<g>
</g>
<g>
</g>
<g>
</g>
<g>
</g>
<g>
</g>
<g>
</g>
<g>
</g>
<g>
</g>
<g>
</g>
<g>
</g>
<g>
</g>
<g>
</g>
<g>
</g>
<g>
</g>
<g>
</g>
</svg>
