<svg height="512" viewBox="0 0 128 128" width="512" xmlns="http://www.w3.org/2000/svg"><g id="Circle_Grid" data-name="Circle Grid"><circle cx="64" cy="64" fill="#f6c863" r="64"/></g><g id="icon"><path d="m75.608 88.011h-23.216l-2.362 10.273h27.94z" fill="#62667c"/><rect fill="#575b6d" height="60.949" rx="4" width="83" x="22.5" y="28.124"/><path d="m40.922 19.564h46.157v73.139h-46.157z" fill="#69b0ee" transform="matrix(0 1 -1 0 120.133 -7.867)"/><path d="m49.613 95.818h28.774a4 4 0 0 1 4 4v.058a0 0 0 0 1 0 0h-36.774a0 0 0 0 1 0 0v-.058a4 4 0 0 1 4-4z" fill="#575b6d"/><g fill="#414451"><circle cx="92.351" cy="84.159" r="1.798"/><circle cx="85.161" cy="84.159" r="1.798"/><circle cx="77.97" cy="84.159" r="1.798"/></g><circle cx="64" cy="56.133" fill="#eeefee" r="13.504"/><path d="m70.989 56.719-9.86 6.492a.7.7 0 0 1 -1.088-.586v-12.989a.7.7 0 0 1 1.088-.586l9.86 6.5a.7.7 0 0 1 0 1.169z" fill="#ef5261"/></g></svg>