<svg xmlns="http://www.w3.org/2000/svg" viewBox="0 0 400 300"><g id="_501_video_tutorial_flatline" data-name="#501_video_tutorial_flatline"><path d="M114,80.93h5.21v92.5H114a6.18,6.18,0,0,1-6.17-6.18V87.11A6.18,6.18,0,0,1,114,80.93Z" fill="#231f20"/><path d="M119.18,173.93H114a6.68,6.68,0,0,1-6.67-6.68V87.11A6.68,6.68,0,0,1,114,80.43h5.21a.5.5,0,0,1,.5.5v92.5A.5.5,0,0,1,119.18,173.93ZM114,81.43a5.68,5.68,0,0,0-5.67,5.68v80.14a5.68,5.68,0,0,0,5.67,5.68h4.71V81.43Z" fill="#231f20"/><rect x="119.19" y="80.93" width="168.12" height="92.5" transform="translate(406.49 254.36) rotate(-180)" fill="#fff"/><path d="M287.31,173.93H119.19a.5.5,0,0,1-.5-.5V80.93a.5.5,0,0,1,.5-.5H287.31a.51.51,0,0,1,.5.5v92.5A.5.5,0,0,1,287.31,173.93Zm-167.62-1H286.81V81.43H119.69Z" fill="#231f20"/><polygon points="127.21 170.1 127.21 160.24 134.11 165.59 127.21 170.1" fill="#d1d3d4"/><path d="M301.15,87.11v80.14a6.18,6.18,0,0,1-6.17,6.18H287.3V80.93H295A6.18,6.18,0,0,1,301.15,87.11Z" fill="#231f20"/><path d="M295,173.93H287.3a.51.51,0,0,1-.5-.5V80.93a.51.51,0,0,1,.5-.5H295a6.68,6.68,0,0,1,6.67,6.68v80.14A6.68,6.68,0,0,1,295,173.93Zm-7.18-1H295a5.68,5.68,0,0,0,5.67-5.68V87.11A5.68,5.68,0,0,0,295,81.43H287.8Z" fill="#231f20"/><path d="M167,185.67c-4.3,3.08-58.28,6.21-62.9,7.75s-18.14,40.4-18.14,40.4h-64s7.17-68.64,8.62-77.62c.13-.76.24-1.49.35-2.19.64-3.91,1.15-6.91,1.44-8.41,1.55-8,9.5-38.66,25.39-33.73,6-8.2,17.79-4,17.79-4,6.16-3.68,14.77-.92,14.77-.92S104,69.7,109.86,67c5.54-2.56,36.81.15,41,.51s5,9.66.52,13.59C144.9,86.79,125,85.45,125,85.45L112,123.9c-2,5.7-3.88,19.9-2.66,30.11.08.75.19,1.49.32,2.19a16.94,16.94,0,0,0,2.58,7.07c3.32,4.43,37.68,5.77,43.29,6.2C170.93,170.68,171.29,182.6,167,185.67Z" fill="#fff"/><path d="M85.94,234.32h-64a.51.51,0,0,1-.5-.55c.07-.69,7.2-68.76,8.63-77.65.12-.76.24-1.49.35-2.18.66-4.09,1.17-7,1.44-8.43.21-1.06,5.15-26.12,16.57-33a11.22,11.22,0,0,1,9.12-1.26c5.72-7.41,16.24-4.5,17.92-4,5.51-3.16,12.64-1.51,14.52-1,1.64-4.4,14-37.16,19.71-39.79,5.12-2.37,30.56-.47,41.25.47,1.57.13,2.84,1.36,3.5,3.37,1.09,3.33.38,8.38-2.69,11.09-6.14,5.39-23.44,4.66-26.33,4.5l-12.89,38.09c-1.94,5.49-3.88,19.52-2.65,29.89.09.76.2,1.49.32,2.16a16.32,16.32,0,0,0,2.49,6.86c2.73,3.63,29.18,5.18,39.13,5.77,1.71.1,3,.18,3.79.24,10.59.82,13.27,6.46,13.94,8.85.89,3.21,0,6.69-2.24,8.25-2.52,1.8-19.24,3.44-40.84,5.38-11,1-20.43,1.85-22.19,2.44C101,195,91.82,218.46,86.42,234A.51.51,0,0,1,85.94,234.32Zm-63.5-1H85.59C87.44,228,99.32,194.48,103.92,193c1.87-.63,10.94-1.45,22.42-2.48,16-1.44,37.85-3.42,40.35-5.2h0c1.86-1.33,2.64-4.35,1.85-7.18-.6-2.18-3.09-7.34-13-8.12-.77-.06-2.08-.13-3.78-.23-18.23-1.07-37.22-2.64-39.87-6.17a17.24,17.24,0,0,1-2.68-7.29c-.12-.69-.23-1.43-.32-2.21-1.25-10.51.73-24.76,2.69-30.34l13-38.44a.5.5,0,0,1,.5-.34c.2,0,19.74,1.26,26-4.23,2.77-2.43,3.4-7,2.41-10-.31-.94-1.07-2.55-2.63-2.69-8.29-.72-35.71-2.89-40.75-.56-4.64,2.15-15.54,29.37-19.35,39.67a.5.5,0,0,1-.62.31c-.09,0-8.48-2.65-14.37.87a.48.48,0,0,1-.42,0c-.12,0-11.53-4-17.22,3.83a.49.49,0,0,1-.55.19,10.22,10.22,0,0,0-8.64,1.06C37.86,120,33,144.65,32.79,145.7c-.27,1.42-.77,4.32-1.44,8.39-.1.7-.22,1.43-.35,2.19C29.65,164.71,23.13,226.78,22.44,233.32Z" fill="#231f20"/><line x1="90.25" y1="106.94" x2="85.94" y2="116.79" fill="#fff"/><path d="M85.94,117.29a.51.51,0,0,1-.2,0,.5.5,0,0,1-.25-.66l4.3-9.85a.5.5,0,0,1,.66-.25.49.49,0,0,1,.26.65L86.4,117A.49.49,0,0,1,85.94,117.29Z" fill="#231f20"/><path d="M205.93,143.39H119.87v-1h85.56V81.56h1v61.33A.5.5,0,0,1,205.93,143.39Z" fill="#d1d3d4"/><path d="M285.32,156.53H112.25a.5.5,0,0,1-.5-.5.5.5,0,0,1,.5-.5H285.32a.5.5,0,0,1,.5.5A.51.51,0,0,1,285.32,156.53Z" fill="#231f20"/><path d="M278.39,165.67H141.18a.5.5,0,0,1-.5-.5.5.5,0,0,1,.5-.5H278.39a.5.5,0,0,1,.5.5A.51.51,0,0,1,278.39,165.67Z" fill="#d1d3d4"/><circle cx="187.79" cy="165.17" r="3.78" fill="#03045e"/><path d="M303.35,234.1h71.7c4.33-29.09,4.47-79.69-2.22-84.37-7.24-5.06-12.17,6.25-12.17,6.25s-.07-8.54-10.61-11.6-12.29,14.74-12.29,14.74-4.31-11-14.88-11.61-8.41,17.17-8.41,17.17S288.28,108.52,282.24,104s-12.35.1-13.18,7.37,25.17,86.13,25.17,86.13-27.52-12-37.76-15.77c-15.76-5.79-24.45,6.13-15.46,14.64C251.12,205.94,303.35,234.1,303.35,234.1Z" fill="#fff"/><path d="M375.05,234.6h-71.7a.46.46,0,0,1-.23-.06c-2.14-1.15-52.42-28.3-62.45-37.81-3.91-3.7-4.89-8.33-2.55-12.1,2.56-4.12,9.28-6.76,18.52-3.37,9,3.31,31.68,13.12,36.77,15.33-3.23-9.81-25.65-78.36-24.85-85.28.48-4.19,2.73-7.64,5.88-9a7.93,7.93,0,0,1,8.1,1.28c5.42,4.05,26.11,47.52,31.25,58.46-.1-3.52.23-9.6,3.29-12.86A7.08,7.08,0,0,1,322.9,147c8.34.48,12.92,7.3,14.59,10.4.53-3.14,2.1-9.86,6.21-12.65a7.43,7.43,0,0,1,6.49-.86c7.94,2.3,10.13,7.72,10.74,10.45,1.1-1.95,3.39-5.3,6.57-6.2a6.46,6.46,0,0,1,5.61,1.17c7,4.92,6.65,56.53,2.43,84.85A.49.49,0,0,1,375.05,234.6Zm-71.57-1h71.14c4.43-30.21,4.11-79.13-2.08-83.46a5.48,5.48,0,0,0-4.76-1c-4,1.13-6.64,7-6.66,7.07a.5.5,0,0,1-.56.28.48.48,0,0,1-.4-.48c0-.33-.21-8.22-10.25-11.13a6.45,6.45,0,0,0-5.64.73c-4.95,3.35-6,13.47-6,13.58a.49.49,0,0,1-.43.44.51.51,0,0,1-.53-.31c0-.11-4.32-10.71-14.44-11.29a6.11,6.11,0,0,0-5,1.87c-4.06,4.33-2.86,14.63-2.85,14.74a.5.5,0,0,1-.36.54.51.51,0,0,1-.59-.27c-.26-.56-26.2-56.1-32.07-60.49a7,7,0,0,0-7.11-1.17c-2.81,1.22-4.84,4.36-5.28,8.19-.81,7.08,24.89,85.13,25.15,85.92a.5.5,0,0,1-.13.53.53.53,0,0,1-.54.09c-.28-.12-27.62-12.05-37.74-15.76-8.71-3.2-15-.82-17.32,3-2.07,3.34-1.16,7.49,2.38,10.85C251.07,205.22,300.78,232.14,303.48,233.6Z" fill="#231f20"/><path d="M149.41,115H128.32a.5.5,0,0,1-.5-.5V93.44a.5.5,0,0,1,.5-.5h21.09a.5.5,0,0,1,.5.5v21.09A.5.5,0,0,1,149.41,115Zm-20.59-1h20.09V93.94H128.82Z" fill="#d1d3d4"/><path d="M175.09,115H154a.5.5,0,0,1-.5-.5V93.44a.5.5,0,0,1,.5-.5h21.09a.5.5,0,0,1,.5.5v21.09A.5.5,0,0,1,175.09,115Zm-20.59-1h20.09V93.94H154.5Z" fill="#d1d3d4"/><path d="M200.77,115H179.68a.5.5,0,0,1-.5-.5V93.44a.5.5,0,0,1,.5-.5h21.09a.5.5,0,0,1,.5.5v21.09A.5.5,0,0,1,200.77,115Zm-20.59-1h20.09V93.94H180.18Z" fill="#d1d3d4"/><path d="M149.41,120.87H128.32a.5.5,0,0,1-.5-.5.5.5,0,0,1,.5-.5h21.09a.5.5,0,0,1,.5.5A.5.5,0,0,1,149.41,120.87Z" fill="#d1d3d4"/><path d="M144.93,125.17H128.32a.5.5,0,0,1-.5-.5.5.5,0,0,1,.5-.5h16.61a.5.5,0,0,1,.5.5A.5.5,0,0,1,144.93,125.17Z" fill="#d1d3d4"/><path d="M175.09,120.87H154a.5.5,0,0,1-.5-.5.5.5,0,0,1,.5-.5h21.09a.5.5,0,0,1,.5.5A.5.5,0,0,1,175.09,120.87Z" fill="#d1d3d4"/><path d="M170.61,125.17H154a.5.5,0,0,1-.5-.5.5.5,0,0,1,.5-.5h16.61a.5.5,0,0,1,.5.5A.5.5,0,0,1,170.61,125.17Z" fill="#d1d3d4"/><path d="M200.77,120.87H179.68a.5.5,0,0,1-.5-.5.5.5,0,0,1,.5-.5h21.09a.5.5,0,0,1,.5.5A.5.5,0,0,1,200.77,120.87Z" fill="#d1d3d4"/><path d="M196.29,125.17H179.68a.5.5,0,0,1-.5-.5.5.5,0,0,1,.5-.5h16.61a.5.5,0,0,1,.5.5A.5.5,0,0,1,196.29,125.17Z" fill="#d1d3d4"/><path d="M259.33,83.62a9,9,0,0,1,1.58.63,10.17,10.17,0,0,1,5.37,7.48,9.9,9.9,0,0,1-3.12,8.64c-1.92,1.72-6.15,3.55-8.61,2a14.46,14.46,0,0,1-5.39-6.84c-1-2.8-1.59-7.31.6-9.72,1.11-1.22,3.44-1.8,5-2.23A8.59,8.59,0,0,1,259.33,83.62Z" fill="#fff"/><path d="M256.87,103.44a4.74,4.74,0,0,1-2.59-.69,15,15,0,0,1-5.6-7.09c-1.1-3.15-1.58-7.71.71-10.23,1.14-1.26,3.35-1.86,5-2.3l.27-.07a9,9,0,0,1,4.84.08h0a9.46,9.46,0,0,1,1.68.66,10.71,10.71,0,0,1,5.64,7.86,10.39,10.39,0,0,1-3.28,9.09A11,11,0,0,1,256.87,103.44Zm0-19.68a7.28,7.28,0,0,0-2,.27l-.26.07c-1.5.4-3.54,1-4.49,2-2.13,2.34-1.32,6.89-.5,9.22a13.91,13.91,0,0,0,5.19,6.58c2.12,1.36,6.09-.19,8-1.91a9.51,9.51,0,0,0,3-8.2,9.67,9.67,0,0,0-5.11-7.11,8.4,8.4,0,0,0-1.49-.59h0A8.59,8.59,0,0,0,256.86,83.76Z" fill="#231f20"/><path d="M258.94,90.58a15.48,15.48,0,0,1,1.43,3.32c.7,2.25,1,5-.61,6.7a5.07,5.07,0,0,1-5.07,1.24,10.09,10.09,0,0,1-4.52-3c-2.48-2.62-6.55-9.73-2.74-13C250.85,83,257.21,87.68,258.94,90.58Z" fill="#231f20"/><path d="M256.23,102.55a6.46,6.46,0,0,1-1.67-.23,10.41,10.41,0,0,1-4.75-3.13c-1.82-1.93-4.63-6.35-4.43-10.06a5,5,0,0,1,1.73-3.64,4.66,4.66,0,0,1,4-.95c3.46.58,7.11,3.78,8.3,5.78h0a15.64,15.64,0,0,1,1.48,3.43c.67,2.17,1.1,5.18-.72,7.19A5.19,5.19,0,0,1,256.23,102.55ZM250,85.46a3.38,3.38,0,0,0-2.28.79,4,4,0,0,0-1.38,2.94c-.17,3.21,2.33,7.37,4.15,9.31a9.6,9.6,0,0,0,4.29,2.86,4.63,4.63,0,0,0,4.57-1.09c1.5-1.66,1.1-4.3.51-6.22a15.09,15.09,0,0,0-1.38-3.21h0C257.39,89,254,86,250.91,85.53A5.27,5.27,0,0,0,250,85.46Z" fill="#231f20"/><path d="M252.38,110.74c-4.43,1.71-11.75.67-15.93-1.53-8.12-4.27-6.51-14.37-1.87-20.53a11.52,11.52,0,0,1,3.28-3.1,10.78,10.78,0,0,1,6.41-1.1,17,17,0,0,1,13.43,8.8C260.89,99.52,259.27,108.08,252.38,110.74Z" fill="#fff"/><path d="M247,112.08a25,25,0,0,1-10.81-2.42,10.74,10.74,0,0,1-5.69-7.28c-1-4.36.43-9.72,3.66-14a11.6,11.6,0,0,1,3.42-3.23A11.09,11.09,0,0,1,244.32,84a17.58,17.58,0,0,1,13.83,9.07,14.65,14.65,0,0,1,.74,11.7,10.85,10.85,0,0,1-6.33,6.45A15.7,15.7,0,0,1,247,112.08Zm-4.24-27.17a9.34,9.34,0,0,0-4.68,1.1A10.85,10.85,0,0,0,235,89c-3,4-4.37,9.17-3.47,13.18a9.62,9.62,0,0,0,5.17,6.61c4,2.09,11.15,3.19,15.52,1.5h0a9.89,9.89,0,0,0,5.76-5.86,13.67,13.67,0,0,0-.7-10.9,16.56,16.56,0,0,0-13-8.53C243.73,84.93,243.25,84.91,242.79,84.91Z" fill="#231f20"/><path d="M194.48,130s-5-4.23-6.1-6.85-1.32-5.17-2.49-4.79-.89,2.81.43,6.19c0,0-11.45-4.5-12.11-3.09a5.24,5.24,0,0,0,0,4.59c.75,1.22,8.17,4.23,9,5.35s5.26,5.54,5.26,5.54Z" fill="#fff"/><path d="M188.48,137.46a.51.51,0,0,1-.36-.15c-.18-.18-4.44-4.44-5.3-5.59a22,22,0,0,0-4.08-2.34c-2.79-1.42-4.52-2.34-5-3a5.81,5.81,0,0,1,0-5.08c.54-1.16,4.48-.34,11.71,2.45-.64-1.85-1.11-3.92-.58-5a1.43,1.43,0,0,1,.85-.77,1.14,1.14,0,0,1,.87.06c.66.34,1,1.31,1.39,2.64.23.72.49,1.54.84,2.37,1.07,2.49,5.92,6.62,6,6.67a.49.49,0,0,1,.17.34.48.48,0,0,1-.12.36l-6,6.95a.53.53,0,0,1-.36.17ZM175,121.68a.86.86,0,0,0-.42.08,4.76,4.76,0,0,0,0,4c.32.52,2.76,1.77,4.55,2.67,2.46,1.25,4,2,4.43,2.64.67.9,3.75,4,4.83,5.11l5.33-6.16c-1.21-1.06-4.87-4.41-5.86-6.71a24.64,24.64,0,0,1-.87-2.46c-.29-.89-.61-1.9-.9-2.05,0,0,0,0-.1,0a.43.43,0,0,0-.26.25c-.37.77,0,2.75,1,5.29a.49.49,0,0,1-.11.54.5.5,0,0,1-.53.11C181.74,123.31,176.64,121.68,175,121.68Z" fill="#231f20"/><path d="M194.51,127.34s14.9,13.33,16.43,13.11c2.55-3.32,11.71-17,11.71-17,2.32-3.05,9-5.42,18.57-4.11,0,0,21.23.44,25.34,7.19,2.37,3.88,4.37,14.24,5.69,29.55H201.48c-5.78-8.73-15.59-20.37-15.59-20.37Z" fill="#03045e"/><polygon points="237.9 122.46 238.37 151.43 251.12 120.88 237.9 122.46" fill="#231f20"/><path d="M238.37,151.93h-.1a.48.48,0,0,1-.4-.48l-.47-29a.51.51,0,0,1,.44-.5l13.22-1.59a.5.5,0,0,1,.45.2.49.49,0,0,1,.07.49l-12.75,30.55A.5.5,0,0,1,238.37,151.93Zm0-29,.42,26.12,11.49-27.55Z" fill="#231f20"/><path d="M235,104.34a5.21,5.21,0,0,0-1-1.88,1.75,1.75,0,0,0-2-.46,1.65,1.65,0,0,0-.82,1.33,3.63,3.63,0,0,0,.26,1.59,6.45,6.45,0,0,0,1.56,2.55,3.69,3.69,0,0,0,2.73,1.07" fill="#fff"/><path d="M235.49,109.05a4.29,4.29,0,0,1-2.86-1.21,6.91,6.91,0,0,1-1.68-2.75,4.26,4.26,0,0,1-.29-1.81,2.2,2.2,0,0,1,1.09-1.73,2.28,2.28,0,0,1,2.55.56,5.74,5.74,0,0,1,1.13,2.06.5.5,0,0,1-.94.35,4.76,4.76,0,0,0-.91-1.71,1.29,1.29,0,0,0-1.37-.37,1.18,1.18,0,0,0-.55.94,3.26,3.26,0,0,0,.24,1.38,5.86,5.86,0,0,0,1.42,2.35,3.2,3.2,0,0,0,2.35.93.49.49,0,0,1,.53.46.5.5,0,0,1-.46.54Z" fill="#231f20"/><path d="M238.75,113.93l-.85,8.53s.42,4.86,5.74,3.89a10.83,10.83,0,0,0,7.48-5.47l.79-14.83c0-.63-2.26-3.24-1.65-8.65a20.19,20.19,0,0,1-10.56-4.64,14.71,14.71,0,0,1-2.23,3.36,13.07,13.07,0,0,0-2.19,2.39c-1.64,2.48-1.82,5.91-1.42,8.74C234.19,109.62,235.79,114,238.75,113.93Z" fill="#fff"/><path d="M242.31,127a4.87,4.87,0,0,1-3-.94,5.41,5.41,0,0,1-1.9-3.53l.81-8.11c-2.85-.42-4.48-4.46-4.84-7.08-.3-2.09-.5-6.07,1.5-9.09a13.62,13.62,0,0,1,2.27-2.48,14.62,14.62,0,0,0,2.11-3.21.48.48,0,0,1,.36-.27.46.46,0,0,1,.43.12,19.85,19.85,0,0,0,10.28,4.51.49.49,0,0,1,.33.19.53.53,0,0,1,.11.37,12.59,12.59,0,0,0,1.29,7.54,2.32,2.32,0,0,1,.36,1.07h0s0,.33-.8,14.83a.58.58,0,0,1,0,.19,11.19,11.19,0,0,1-7.84,5.75A8,8,0,0,1,242.31,127Zm-3.91-4.47a3.93,3.93,0,0,0,5.16,3.35,10.32,10.32,0,0,0,7.06-5.11c.07-1.33.79-14.62.79-14.73a4.73,4.73,0,0,0-.26-.58,13.61,13.61,0,0,1-1.43-7.6,20.85,20.85,0,0,1-9.87-4.3,12.4,12.4,0,0,1-2,2.95,12.78,12.78,0,0,0-2.11,2.29c-1.81,2.75-1.62,6.45-1.34,8.4s1.72,6.25,4.34,6.25h.05a.48.48,0,0,1,.37.17.45.45,0,0,1,.13.38l-.85,8.53Z" fill="#231f20"/><path d="M242.32,99.28s-3.13,3.85-2.55,4.62,2.46.47,2.46.47" fill="#fff"/><path d="M241.44,104.93a2.61,2.61,0,0,1-2.07-.73c-.54-.72.32-2.48,2.56-5.23a.5.5,0,0,1,.78.63c-1.41,1.73-2.58,3.62-2.51,4.06.25.3,1.31.32,2,.22a.49.49,0,0,1,.57.41.5.5,0,0,1-.41.58A7,7,0,0,1,241.44,104.93Z" fill="#231f20"/><ellipse cx="236.19" cy="100.51" rx="0.89" ry="0.47" transform="matrix(0.13, -0.99, 0.99, 0.13, 105.26, 321.29)" fill="#231f20"/><ellipse cx="244.53" cy="100.05" rx="0.89" ry="0.47" transform="translate(141.63 343.39) rotate(-89.33)" fill="#231f20"/><path d="M249.45,102.78a5.92,5.92,0,0,1,1-2,2.69,2.69,0,0,1,2.21-1.12,1.78,1.78,0,0,1,1.35.72,2.58,2.58,0,0,1,.35,1c.28,1.9-.36,4.37-2.14,5.35a1.89,1.89,0,0,1-2,0" fill="#fff"/><path d="M251.06,107.52a1.91,1.91,0,0,1-1.2-.38.5.5,0,1,1,.61-.79,1.42,1.42,0,0,0,1.47-.07c1.56-.86,2.13-3.13,1.88-4.84a2,2,0,0,0-.26-.81,1.26,1.26,0,0,0-1-.5,2.21,2.21,0,0,0-1.79.93,5.71,5.71,0,0,0-.87,1.87.5.5,0,0,1-.62.33.49.49,0,0,1-.34-.62,6.7,6.7,0,0,1,1-2.2,3.21,3.21,0,0,1,2.64-1.31,2.27,2.27,0,0,1,1.74.94,3,3,0,0,1,.42,1.23c.31,2.09-.41,4.77-2.39,5.86A2.91,2.91,0,0,1,251.06,107.52Z" fill="#231f20"/><path d="M222.65,153.74h0a.49.49,0,0,1-.48-.49c0-.64,3.22-17.88,3.87-21.33a.5.5,0,1,1,1,.19c-1.52,8.14-3.81,20.5-3.85,21.15A.51.51,0,0,1,222.65,153.74Z" fill="#231f20"/><path d="M257,155.1a.5.5,0,0,1-.5-.5V131.18a.5.5,0,0,1,.5-.5.5.5,0,0,1,.5.5V154.6A.5.5,0,0,1,257,155.1Z" fill="#231f20"/><path d="M245.34,105.48l-7,.65s0,5,2.95,4.65S245.12,108.54,245.34,105.48Z" fill="#fff"/><path d="M241,111.29a2.43,2.43,0,0,1-1.64-.62c-1.5-1.34-1.53-4.4-1.53-4.53a.49.49,0,0,1,.45-.5l7-.66a.51.51,0,0,1,.4.14.48.48,0,0,1,.14.39c-.18,2.63-.86,5.36-4.45,5.77Zm-2.15-4.7a5.49,5.49,0,0,0,1.17,3.33,1.47,1.47,0,0,0,1.2.36c2.23-.25,3.22-1.41,3.52-4.25Z" fill="#231f20"/><path d="M238.75,113.93a20.37,20.37,0,0,0,8.15-1.51s-4.81,5.8-8.53,8Z" fill="#231f20"/><path d="M238.37,120.87a.5.5,0,0,1-.26-.08.49.49,0,0,1-.24-.45l.39-6.44a.49.49,0,0,1,.52-.47,19.8,19.8,0,0,0,7.91-1.47.5.5,0,0,1,.59.78c-.2.24-4.91,5.9-8.66,8.06A.45.45,0,0,1,238.37,120.87Zm.85-6.43-.29,5a41,41,0,0,0,6.31-5.86A21.51,21.51,0,0,1,239.22,114.44Z" fill="#231f20"/><path d="M236.62,104.48a4.24,4.24,0,1,1,4.24-4.24A4.24,4.24,0,0,1,236.62,104.48Zm0-7.48a3.24,3.24,0,1,0,3.24,3.24A3.25,3.25,0,0,0,236.62,97Z" fill="#231f20"/><path d="M245.87,104.29a4.24,4.24,0,1,1,4.24-4.24A4.24,4.24,0,0,1,245.87,104.29Zm0-7.48a3.24,3.24,0,1,0,3.24,3.24A3.25,3.25,0,0,0,245.87,96.81Z" fill="#231f20"/><path d="M134.11,138.87h-5.79a.5.5,0,0,1,0-1h5.79a.5.5,0,0,1,0,1Z" fill="#d1d3d4"/></g></svg>